<?xml version="1.0" ?><svg id="Layer_1" style="enable-background:new 0 0 24 24;" version="1.1" viewBox="0 0 24 24" xml:space="preserve" xmlns="http://www.w3.org/2000/svg" xmlns:xlink="http://www.w3.org/1999/xlink"><title/><g id="Present_Box_1"><g><rect height="4" style="fill:#F8F8F8;" width="21" x="1.5" y="3.5"/><rect height="4" style="fill:#F8F8F8;" width="21" x="1.5" y="3.5"/><rect height="1.5" style="fill:#FFFFFF;" width="21" x="1.5" y="3.5"/><rect height="15" style="fill:#F8F8F8;" width="19" x="2.5" y="7.5"/><rect height="1.5" style="opacity:0.1;enable-background:new    ;" width="19" x="2.5" y="7.5"/><rect height="1.5" style="opacity:0.1;enable-background:new    ;" width="19" x="2.5" y="21"/><g><path d="M18,1.5c-1.22,0-3.3,1.18-4.77,2.65c-0.466-0.678-1.394-0.85-2.072-0.384     C11.025,3.858,10.907,3.97,10.81,4.1l0,0C9.34,2.61,7.22,1.5,6,1.5s-0.5,2.16-0.5,3s-0.19,3,1,3c1.114-0.171,2.196-0.508,3.21-1     l-1.21,3L10,9l0.5,1.5v12h3v-12L14,9l1.5,0.5l-1.1-3c0.974,0.495,2.02,0.833,3.1,1c1.19,0,1-2.16,1-3S19.22,1.5,18,1.5z" style="fill:#D51C29;"/><path d="M6,2.5c1.22,0,3.34,1.11,4.81,2.58l0,0     c0.494-0.658,1.428-0.792,2.086-0.298c0.13,0.097,0.242,0.215,0.334,0.348C14.7,3.68,16.78,2.5,18,2.5c0.42,0,0.6,0.26,0.67,0.63     C18.77,2.31,18.75,1.5,18,1.5c-1.22,0-3.3,1.18-4.77,2.65c-0.466-0.678-1.394-0.85-2.072-0.384     C11.025,3.858,10.907,3.97,10.81,4.1l0,0C9.34,2.61,7.22,1.5,6,1.5c-0.75,0-0.76,0.81-0.67,1.63C5.4,2.76,5.58,2.5,6,2.5z" style="opacity:0.2;fill:#FFFFFF;enable-background:new    ;"/></g><path d="M22.5,3h-3.32c0.115-0.56,0.004-1.142-0.31-1.62C18.652,1.129,18.332,0.99,18,1    c-1.578,0.23-3.051,0.927-4.23,2h-3.42C9.134,1.911,7.618,1.214,6,1C5.664,0.987,5.341,1.127,5.12,1.38    C4.81,1.859,4.702,2.442,4.82,3H1.5C1.224,3,1,3.224,1,3.5v4C1,7.776,1.224,8,1.5,8H2v14.5C2,22.776,2.224,23,2.5,23h19    c0.276,0,0.5-0.224,0.5-0.5V8h0.5C22.776,8,23,7.776,23,7.5v-4C23,3.224,22.776,3,22.5,3z M13,5c0,0.552-0.448,1-1,1s-1-0.448-1-1    s0.448-1,1-1S13,4.448,13,5z M10.06,6.87l0.69-0.32c0.171,0.137,0.364,0.245,0.57,0.32l-0.17,0.45l0,0L10.53,9l-0.05-0.16    c-0.086-0.262-0.368-0.405-0.63-0.32L9.36,8.68L10.06,6.87z M11,10.59L12,8l0,0l1,2.59V22h-2V10.59z M13.53,8.84L13.47,9    l-0.63-1.68l0,0l-0.17-0.45c0.231-0.084,0.444-0.209,0.63-0.37l0.67,0.33l0.3,0.8c-0.003,0.033-0.003,0.067,0,0.1l0.36,1    l-0.51-0.17C13.881,8.494,13.63,8.613,13.53,8.84z M18.12,2c0.19,0.22,0,1.11,0,1.59c-0.053,0.291-0.086,0.585-0.1,0.88v0.32    c0,0.57,0,1.75-0.31,2.1S15.9,6.59,14.59,6l0,0l-0.7-0.33c0.181-0.456,0.181-0.964,0-1.42C15.21,3,17,2,18,2    C18.038,1.984,18.082,1.984,18.12,2z M5.88,2C5.918,1.984,5.962,1.984,6,2c1.585,0.278,3.045,1.04,4.18,2.18    c-0.211,0.499-0.211,1.061,0,1.56C8.72,6.39,6.59,7.21,6.3,6.92S6,5.39,6,4.82V4.5C5.986,4.205,5.953,3.911,5.9,3.62    C5.83,3.14,5.7,2.24,5.88,2z M2,4h2.95C4.978,4.165,4.994,4.332,5,4.5v0.3C4.942,5.54,5.013,6.284,5.21,7H2V4z M3,8h5.55L8,9.32    C7.898,9.577,8.023,9.867,8.28,9.969c0.109,0.043,0.229,0.047,0.34,0.011l1-0.34l0.32,0.95V22H3V8z M21,22h-7V10.58l0.32-0.95    l1,0.34c0.249,0.12,0.548,0.016,0.668-0.233C16.049,9.609,16.054,9.461,16,9.33L15.48,8H21V22z M22,7h-3.21    c0.197-0.716,0.268-1.46,0.21-2.2V4.5c0.006-0.168,0.022-0.335,0.05-0.5H22V7z" style="fill:#303C42;"/><linearGradient gradientTransform="matrix(1 0 0 -1 0 24)" gradientUnits="userSpaceOnUse" id="SVGID_1_" x1="-0.627" x2="23.9844" y1="17.1234" y2="5.6428"><stop offset="0" style="stop-color:#FFFFFF;stop-opacity:0.2"/><stop offset="1" style="stop-color:#FFFFFF;stop-opacity:0"/></linearGradient><path d="M22.5,3h-3.32c0.115-0.56,0.004-1.142-0.31-1.62C18.652,1.129,18.332,0.99,18,1    c-1.578,0.23-3.051,0.927-4.23,2h-3.42C9.134,1.911,7.618,1.214,6,1C5.664,0.987,5.341,1.127,5.12,1.38    C4.81,1.859,4.702,2.442,4.82,3H1.5C1.224,3,1,3.224,1,3.5v4C1,7.776,1.224,8,1.5,8H2v14.5C2,22.776,2.224,23,2.5,23h19    c0.276,0,0.5-0.224,0.5-0.5V8h0.5C22.776,8,23,7.776,23,7.5v-4C23,3.224,22.776,3,22.5,3z" style="fill:url(#SVGID_1_);"/></g></g></svg>